<svg width="28" height="28" viewBox="0 0 28 28" fill="none" xmlns="http://www.w3.org/2000/svg">
<g id="SVG" clip-path="url(#clip0_544_134)">
<path id="Vector" d="M27.207 13.842C27.207 6.46077 21.2233 0.477131 13.8422 0.477131C6.46096 0.477131 0.477325 6.46077 0.477325 13.842C0.477325 21.2231 6.46096 27.2068 13.8422 27.2068C21.2233 27.2068 27.207 21.2231 27.207 13.842Z" stroke="#E4D7CD" stroke-opacity="0.4" stroke-width="0.954631"/>
<path id="Vector_2" d="M20.3019 13.8418C20.3019 10.2743 17.4098 7.38217 13.8422 7.38217C10.2746 7.38217 7.38254 10.2743 7.38254 13.8418C7.38254 17.4094 10.2746 20.3015 13.8422 20.3015C17.4098 20.3015 20.3019 17.4094 20.3019 13.8418Z" fill="#EE6324"/>
</g>
<defs>
<clipPath id="clip0_544_134">
<rect width="27.6843" height="27.6843" fill="white" transform="matrix(0 -1 1 0 0 27.6841)"/>
</clipPath>
</defs>
</svg>
