<svg width="372" height="68" viewBox="0 0 372 68" fill="none" xmlns="http://www.w3.org/2000/svg">
<path fill-rule="evenodd" clip-rule="evenodd" d="M2.43945 52.8151C11.5575 55.5403 31.3346 52.1662 37.8841 55.2807C42.3789 57.357 44.5621 60.7311 45.2042 65.6624C41.6084 55.67 20.1618 63.067 10.7869 59.8227C8.47532 59.0441 5.26475 55.7998 2.43945 52.8151Z" fill="#5E2A29"/>
<path fill-rule="evenodd" clip-rule="evenodd" d="M40.9657 1.94556C22.0875 23.0982 17.3359 32.312 31.9761 45.0295C21.1886 32.8311 42.3783 23.3578 43.4057 13.1059C43.6625 10.5104 43.1488 7.00663 40.9657 1.94556Z" fill="#F3C017"/>
<path fill-rule="evenodd" clip-rule="evenodd" d="M46.1035 16.4794C30.436 33.9985 26.4549 41.6549 38.655 52.1664C29.6654 42.0443 47.2593 34.1282 48.1583 25.6931C48.4151 23.487 48.0299 20.5023 46.1035 16.4794Z" fill="#E36226"/>
<path fill-rule="evenodd" clip-rule="evenodd" d="M48.0294 31.1437C37.1135 43.3421 34.2882 48.7925 42.8925 56.0597C36.5998 49.0521 48.9284 43.4719 49.5705 37.6322C49.5705 36.075 49.3136 33.9986 48.0294 31.1437Z" fill="#902A30"/>
<path fill-rule="evenodd" clip-rule="evenodd" d="M81.0326 50.6099C72.942 52.0373 55.3481 50.2206 49.5691 51.9076C45.588 53.0755 43.5332 54.7625 43.0195 57.4877C46.2301 52.1671 65.2367 56.0602 73.5841 54.3732C75.6389 53.8541 78.4642 52.1671 81.0326 50.6099Z" fill="#5E2A29"/>
<path d="M369.473 50.2213H88.8691V50.8702H369.473V50.2213Z" fill="#5E2A29"/>
<path d="M90.7955 27.1207C89.8965 26.9909 89.2544 26.7314 88.8691 26.6016V23.2275H89.8965L90.6671 25.3039C90.9239 25.6932 91.4376 25.9527 91.9513 26.0825C92.465 26.2123 92.9787 26.342 93.6208 26.342C94.3913 26.342 95.0334 26.0825 95.4187 25.6932C95.804 25.3039 96.1892 24.655 96.1892 24.0062C96.1892 23.3573 95.9324 22.8382 95.4187 22.3191C94.905 21.8001 94.1345 21.281 93.2355 20.7619C92.2081 20.2428 91.4376 19.7237 90.9239 19.3344C90.4102 18.9451 89.8965 18.426 89.5113 17.9069C89.126 17.3879 88.9976 16.739 88.9976 16.0901C88.9976 15.3115 89.2544 14.5329 89.6397 14.0138C90.1534 13.4947 90.6671 12.9756 91.4376 12.7161C92.2081 12.4566 92.8502 12.3268 93.6208 12.3268C94.3913 12.3268 95.1619 12.4566 95.9324 12.5863C96.7029 12.7161 97.2166 12.8459 97.6019 13.1054V15.9604H96.4461L95.6755 14.0138C95.5471 13.884 95.1619 13.7543 94.7766 13.6245C94.3913 13.4947 94.0061 13.4947 93.6208 13.4947C92.9787 13.4947 92.3366 13.6245 91.9513 14.0138C91.4376 14.2733 91.1808 14.7924 91.1808 15.4413C91.1808 16.0901 91.4376 16.739 92.0797 17.2581C92.5934 17.7772 93.4924 18.2962 94.6482 18.9451C95.4187 19.3344 96.1892 19.8535 96.7029 20.2428C97.2166 20.6321 97.7303 21.1512 98.1156 21.6703C98.5008 22.1894 98.6293 22.8382 98.6293 23.4871C98.6293 24.7848 98.1156 25.823 97.2166 26.4718C96.1892 27.1207 95.0334 27.51 93.4924 27.51C92.5934 27.3802 91.6944 27.3802 90.7955 27.1207Z" fill="#5E2A29"/>
<path d="M101.455 25.9513V13.4933L99.9141 13.104V12.1956L103.381 11.6765L103.895 11.9361V16.3483L103.767 17.7757C104.28 17.3864 104.923 16.9971 105.565 16.7376C106.207 16.478 106.849 16.3483 107.363 16.3483C108.262 16.3483 108.904 16.478 109.289 16.8674C109.803 17.2567 110.059 17.7757 110.188 18.4246C110.316 19.0735 110.445 20.1116 110.445 21.2796V25.9513L111.729 26.2109V27.249H106.592V26.2109L108.133 25.9513V22.0582C108.133 21.02 108.133 20.2414 108.005 19.7223C107.876 19.2032 107.748 18.6841 107.491 18.4246C107.234 18.1651 106.72 17.9055 106.078 17.9055C105.179 17.9055 104.409 18.1651 103.895 18.5544V25.9513L105.051 26.2109V27.249H100.171V26.2109L101.455 25.9513Z" fill="#5E2A29"/>
<path d="M115.067 25.9532V18.8157L113.783 18.0371V17.2585L116.608 16.3501L117.122 16.4799V18.1669C117.379 17.7776 117.764 17.3883 118.406 16.999C119.048 16.6096 119.69 16.4799 120.204 16.4799C120.718 16.4799 120.974 16.4799 121.103 16.6096V18.9455C120.589 18.686 120.075 18.5562 119.433 18.5562C118.663 18.5562 118.021 18.686 117.507 19.0753V25.9532L119.947 26.2127V27.2509H113.654V26.2127L115.067 25.9532Z" fill="#5E2A29"/>
<path d="M126.368 16.4797V25.953L127.781 26.2125V27.2507H122.516V26.2125L124.057 25.953V18.8155L122.772 17.9071V17.2583L125.855 16.3499L126.368 16.4797ZM126.24 11.6781C126.497 11.9377 126.625 12.327 126.625 12.7163C126.625 13.2354 126.497 13.6247 126.111 13.8842C125.726 14.1438 125.341 14.2736 124.827 14.2736C124.442 14.2736 124.057 14.1438 123.8 13.8842C123.543 13.6247 123.415 13.2354 123.415 12.8461C123.415 12.327 123.543 11.9377 123.928 11.6781C124.314 11.4186 124.699 11.1591 125.084 11.1591C125.598 11.2888 125.983 11.4186 126.24 11.6781Z" fill="#5E2A29"/>
<path d="M130.864 25.9532V18.8157L129.58 18.0371V17.2585L132.405 16.3501L132.919 16.4799V17.9073C133.304 17.518 133.946 17.1287 134.589 16.8692C135.231 16.6096 135.873 16.3501 136.515 16.3501C137.285 16.3501 137.799 16.3501 138.313 16.6096C138.827 16.8692 139.083 17.2585 139.34 17.7776C139.854 17.3883 140.368 16.999 141.138 16.7394C141.78 16.4799 142.551 16.3501 143.193 16.3501C144.349 16.3501 145.119 16.7394 145.633 17.3883C146.147 18.1669 146.403 19.2051 146.403 20.7623V25.9532L147.945 26.2127V27.2509H142.936V26.2127L144.092 25.9532V21.1516C144.092 20.373 144.092 19.7241 143.963 19.2051C143.835 18.686 143.707 18.4264 143.321 18.1669C142.936 17.9073 142.551 17.7776 142.037 17.7776C141.652 17.7776 141.267 17.7776 140.881 17.9073C140.496 18.0371 140.111 18.1669 139.725 18.4264C139.854 18.9455 139.854 19.5944 139.854 20.373V25.9532L141.267 26.2127V27.2509H136.13V26.2127L137.542 25.9532V21.1516C137.542 20.373 137.542 19.8539 137.414 19.3348C137.285 18.8157 137.157 18.5562 136.772 18.2967C136.515 18.0371 136.13 18.0371 135.616 18.0371C135.231 18.0371 134.845 18.0371 134.46 18.2967C134.075 18.4264 133.69 18.686 133.304 18.9455V25.9532L134.589 26.2127V27.2509H129.58V26.2127L130.864 25.9532Z" fill="#5E2A29"/>
<path d="M156.932 17.1282C157.575 17.6473 157.96 18.5557 157.96 19.9832V26.2122H159.116V26.9908C158.859 27.1206 158.602 27.2504 158.217 27.3801C157.831 27.5099 157.446 27.5099 157.061 27.5099C156.547 27.5099 156.29 27.3801 156.033 27.2504C155.777 27.1206 155.777 26.7313 155.648 26.342C154.878 27.1206 153.979 27.5099 152.694 27.5099C152.052 27.5099 151.41 27.3801 150.897 27.1206C150.383 26.861 149.998 26.4717 149.741 26.0824C149.484 25.6931 149.355 25.174 149.355 24.5252C149.355 23.6168 149.612 22.9679 150.254 22.4488C150.897 21.9297 151.667 21.5404 152.566 21.2809C153.465 21.0213 154.492 20.8916 155.391 20.8916V20.2427C155.391 19.3343 155.134 18.6855 154.749 18.4259C154.364 18.0366 153.722 17.9068 152.951 17.9068C152.566 17.9068 152.052 18.0366 151.539 18.1664C151.025 18.2962 150.511 18.4259 150.126 18.6855L149.741 17.6473C150.126 17.258 150.768 16.9984 151.667 16.7389C152.438 16.4794 153.208 16.4794 153.85 16.4794C155.263 16.3496 156.162 16.6091 156.932 17.1282ZM152.951 22.4488C152.181 22.8381 151.795 23.3572 151.795 24.1358C151.795 25.4336 152.438 26.0824 153.722 26.0824C153.979 26.0824 154.364 26.0824 154.621 25.8229C155.006 25.6931 155.263 25.5633 155.391 25.3038V21.9297C154.621 21.9297 153.722 22.0595 152.951 22.4488Z" fill="#5E2A29"/>
<path d="M169.776 11.9368V26.2116H171.06V26.9902C170.804 27.12 170.547 27.2498 170.033 27.3795C169.519 27.5093 169.134 27.5093 168.749 27.5093C168.364 27.5093 168.107 27.3795 167.85 27.2498C167.721 27.12 167.593 26.8604 167.465 26.4711C167.208 26.7307 166.823 26.9902 166.18 27.12C165.667 27.3795 165.025 27.3795 164.382 27.3795C163.612 27.3795 162.841 27.12 162.199 26.7307C161.557 26.3414 161.043 25.6925 160.658 24.9139C160.273 24.1353 160.145 23.0971 160.145 22.0589C160.145 21.0207 160.401 19.9826 160.915 19.0742C161.429 18.1658 162.071 17.5169 162.97 16.9978C163.869 16.4788 164.768 16.2192 165.795 16.2192C166.437 16.2192 166.823 16.349 167.336 16.4788V13.6238L165.281 13.2345V12.1963L169.134 11.807L169.776 11.9368ZM164.126 17.9062C163.612 18.1658 163.227 18.6849 162.97 19.3337C162.713 19.9826 162.585 20.7612 162.585 21.6696C162.585 22.578 162.713 23.3566 162.97 24.0055C163.227 24.6543 163.612 25.1734 163.997 25.5627C164.382 25.952 164.896 26.0818 165.41 26.0818C165.795 26.0818 166.18 26.0818 166.566 25.952C166.951 25.8223 167.208 25.6925 167.465 25.5627V18.036C166.951 17.6467 166.437 17.3872 165.667 17.3872C165.025 17.3872 164.639 17.5169 164.126 17.9062Z" fill="#5E2A29"/>
<path d="M186.728 13.234C187.627 13.8829 188.141 14.7913 188.141 16.2188C188.141 17.2569 187.884 18.1653 187.37 18.944C186.856 19.7226 186.086 20.2417 185.058 20.631C185.058 20.631 185.187 20.7608 185.315 20.7608C185.701 21.0203 186.086 21.4096 186.343 21.9287C186.599 22.4478 187.113 23.0966 187.627 24.005C188.012 24.6539 188.269 25.173 188.526 25.4325C188.783 25.8218 188.911 25.9516 189.168 26.0814L190.324 26.3409V27.2493H187.113C186.856 27.2493 186.728 26.9898 186.471 26.6005C186.214 26.2111 185.957 25.5623 185.572 24.7837C185.058 23.6157 184.545 22.5776 184.159 21.9287C183.774 21.2798 183.26 20.8905 182.747 20.8905H181.334V25.8218L183.26 26.0814V27.2493H177.225V26.2111L178.894 25.9516V14.0127L177.353 13.8829V12.5852H179.665C179.921 12.5852 180.178 12.5852 180.435 12.5852C180.692 12.5852 180.949 12.5852 181.077 12.5852C181.848 12.5852 182.49 12.4554 183.004 12.4554C184.545 12.3256 185.829 12.5852 186.728 13.234ZM182.233 13.4936C181.719 13.4936 181.334 13.6234 181.206 13.6234V19.5928C181.463 19.5928 181.976 19.5928 182.618 19.5928C183.646 19.5928 184.416 19.3333 185.058 18.8142C185.572 18.2951 185.829 17.5165 185.829 16.3485C185.829 15.4401 185.572 14.6615 185.058 14.1424C184.545 13.6234 183.774 13.3638 182.618 13.3638C182.49 13.4936 182.362 13.4936 182.233 13.4936Z" fill="#5E2A29"/>
<path d="M198.542 17.1282C199.184 17.6473 199.569 18.5557 199.569 19.9832V26.2122H200.725V26.9908C200.468 27.1206 200.211 27.2504 199.826 27.3801C199.441 27.5099 199.055 27.5099 198.67 27.5099C198.157 27.5099 197.9 27.3801 197.643 27.2504C197.386 27.1206 197.386 26.7313 197.258 26.342C196.487 27.1206 195.588 27.5099 194.304 27.5099C193.662 27.5099 193.02 27.3801 192.506 27.1206C191.992 26.861 191.607 26.4717 191.35 26.0824C191.093 25.6931 190.965 25.174 190.965 24.5252C190.965 23.6168 191.222 22.9679 191.864 22.4488C192.506 21.9297 193.276 21.5404 194.175 21.2809C195.074 21.0213 196.102 20.8916 197.001 20.8916V20.2427C197.001 19.3343 196.744 18.6855 196.359 18.4259C195.973 18.0366 195.331 17.9068 194.561 17.9068C194.175 17.9068 193.662 18.0366 193.148 18.1664C192.634 18.2962 192.121 18.4259 191.735 18.6855L191.35 17.6473C191.735 17.258 192.377 16.9984 193.276 16.7389C194.047 16.4794 194.818 16.4794 195.46 16.4794C197.001 16.3496 197.9 16.6091 198.542 17.1282ZM194.689 22.4488C193.919 22.8381 193.533 23.3572 193.533 24.1358C193.533 25.4336 194.175 26.0824 195.46 26.0824C195.716 26.0824 196.102 26.0824 196.359 25.8229C196.744 25.6931 197.001 25.5633 197.129 25.3038V21.9297C196.23 21.9297 195.46 22.0595 194.689 22.4488Z" fill="#5E2A29"/>
<path d="M206.119 16.6086V27.5094C206.119 28.9368 205.862 30.1048 205.22 31.0132C204.578 31.9216 203.807 32.3109 202.651 32.3109C202.395 32.3109 202.138 32.3109 201.881 32.1811C201.624 32.1811 201.367 32.0513 201.367 32.0513V30.6239C201.496 30.6239 201.624 30.6239 201.881 30.7536C202.138 30.7536 202.266 30.7536 202.523 30.7536C203.037 30.7536 203.422 30.4941 203.679 29.975C203.936 29.4559 203.936 28.5475 203.936 27.3796V19.0742L202.78 18.1658V17.517L205.734 16.6086H206.119ZM205.862 11.4178C206.119 11.6773 206.247 12.0666 206.247 12.4559C206.247 12.975 206.119 13.3643 205.734 13.6239C205.348 13.8834 204.963 14.1429 204.449 14.1429C204.064 14.1429 203.679 14.0132 203.422 13.7536C203.165 13.4941 203.037 13.1048 203.037 12.7155C203.037 12.3262 203.165 11.9368 203.55 11.5475C203.936 11.1582 204.321 11.0284 204.706 11.0284C205.22 11.0284 205.605 11.1582 205.862 11.4178Z" fill="#5E2A29"/>
<path d="M215.493 16.349C216.007 16.4788 216.52 16.6086 216.777 16.7383V19.3338H215.621L214.979 17.9063C214.722 17.6467 214.209 17.517 213.567 17.517C212.796 17.517 212.026 17.9063 211.512 18.5551C210.998 19.204 210.741 20.2422 210.741 21.4101C210.741 22.3185 210.87 23.2269 211.255 23.8758C211.512 24.5246 211.897 25.0437 212.411 25.433C212.924 25.8223 213.438 25.9521 214.08 25.9521C214.594 25.9521 215.108 25.9521 215.621 25.8223C216.135 25.6925 216.52 25.5628 216.777 25.433L217.162 26.3414C216.777 26.7307 216.135 26.9903 215.493 27.2498C214.851 27.5093 214.08 27.5093 213.181 27.5093C212.154 27.5093 211.383 27.2498 210.613 26.8605C209.842 26.4712 209.329 25.8223 208.943 24.9139C208.558 24.0055 208.43 23.2269 208.43 22.1887C208.43 21.0208 208.687 19.9826 209.2 19.204C209.714 18.2956 210.356 17.6467 211.127 17.1277C211.897 16.6086 212.924 16.349 213.952 16.349C214.337 16.2193 214.851 16.2193 215.493 16.349Z" fill="#5E2A29"/>
<path d="M219.732 25.952V13.494L218.191 13.1047V12.1963L221.53 11.807L222.044 12.0665V16.4788L221.916 17.9062C222.429 17.5169 223.071 17.1276 223.714 16.8681C224.356 16.6085 224.998 16.4788 225.512 16.4788C226.41 16.4788 227.053 16.6085 227.438 16.9978C227.952 17.3872 228.208 17.9062 228.337 18.5551C228.465 19.204 228.594 20.2421 228.594 21.4101V25.952L229.878 26.2116V27.2498H224.613V26.2116L226.154 25.952V22.0589C226.154 21.0207 226.154 20.2421 226.025 19.723C225.897 19.204 225.768 18.6849 225.512 18.4253C225.255 18.1658 224.741 17.9062 224.099 17.9062C223.2 17.9062 222.429 18.1658 221.916 18.5551V25.952L223.071 26.2116V27.2498H218.32V26.2116L219.732 25.952Z" fill="#5E2A29"/>
<path d="M239.251 17.1282C239.893 17.6473 240.278 18.5557 240.278 19.9832V26.2122H241.434V26.9908C241.177 27.1206 240.92 27.2504 240.535 27.3801C240.15 27.5099 239.764 27.5099 239.379 27.5099C238.865 27.5099 238.609 27.3801 238.352 27.2504C238.095 27.1206 238.095 26.7313 237.967 26.342C237.196 27.1206 236.297 27.5099 235.013 27.5099C234.371 27.5099 233.729 27.3801 233.215 27.1206C232.701 26.861 232.316 26.4717 232.059 26.0824C231.802 25.6931 231.674 25.174 231.674 24.5252C231.674 23.6168 231.931 22.9679 232.573 22.4488C233.215 21.9297 233.985 21.5404 234.884 21.2809C235.783 21.0213 236.811 20.8916 237.71 20.8916V20.2427C237.71 19.3343 237.453 18.6855 237.068 18.4259C236.682 18.0366 236.04 17.9068 235.27 17.9068C234.884 17.9068 234.371 18.0366 233.857 18.1664C233.343 18.2962 232.83 18.4259 232.444 18.6855L232.059 17.6473C232.444 17.258 233.086 16.9984 233.985 16.7389C234.756 16.4794 235.527 16.4794 236.169 16.4794C237.581 16.3496 238.609 16.6091 239.251 17.1282ZM235.27 22.4488C234.499 22.8381 234.114 23.3572 234.114 24.1358C234.114 25.4336 234.756 26.0824 236.04 26.0824C236.297 26.0824 236.682 26.0824 236.939 25.8229C237.324 25.6931 237.581 25.5633 237.71 25.3038V21.9297C236.939 21.9297 236.04 22.0595 235.27 22.4488Z" fill="#5E2A29"/>
<path d="M244.518 25.9532V18.8157L243.234 18.0371V17.2585L246.059 16.3501L246.573 16.4799V17.9073C247.087 17.518 247.729 17.1287 248.371 16.7394C249.141 16.4799 249.783 16.3501 250.426 16.3501C251.581 16.3501 252.352 16.7394 252.737 17.3883C253.122 18.0371 253.379 19.2051 253.379 20.7623V25.9532L254.792 26.2127V27.2509H249.655V26.2127L251.068 25.9532V21.0219C251.068 20.2432 251.068 19.5944 250.939 19.2051C250.811 18.8157 250.682 18.4264 250.297 18.2967C250.04 18.0371 249.655 18.0371 249.013 18.0371C248.628 18.0371 248.242 18.1669 247.857 18.2967C247.472 18.4264 247.087 18.5562 246.701 18.9455V25.9532L247.986 26.2127V27.2509H243.105V26.2127L244.518 25.9532Z" fill="#5E2A29"/>
<path d="M266.093 11.9368V26.2116H267.377V26.9902C267.12 27.12 266.863 27.2498 266.349 27.3795C265.836 27.5093 265.451 27.5093 265.065 27.5093C264.68 27.5093 264.423 27.3795 264.166 27.2498C264.038 27.12 263.909 26.8604 263.781 26.4711C263.524 26.7307 263.139 26.9902 262.497 27.12C261.983 27.3795 261.341 27.3795 260.699 27.3795C259.928 27.3795 259.158 27.12 258.516 26.7307C257.874 26.3414 257.36 25.6925 256.975 24.9139C256.589 24.1353 256.461 23.0971 256.461 22.0589C256.461 21.0207 256.718 19.9826 257.231 19.0742C257.745 18.1658 258.387 17.5169 259.286 16.9978C260.185 16.4788 261.084 16.2192 262.112 16.2192C262.754 16.2192 263.139 16.349 263.653 16.4788V13.6238L261.598 13.2345V12.1963L265.451 11.807L266.093 11.9368ZM260.442 17.9062C259.928 18.1658 259.543 18.6849 259.286 19.3337C259.029 19.9826 258.901 20.7612 258.901 21.6696C258.901 22.578 259.029 23.3566 259.286 24.0055C259.543 24.6543 259.928 25.1734 260.314 25.5627C260.699 25.952 261.213 26.0818 261.726 26.0818C262.112 26.0818 262.497 26.0818 262.882 25.952C263.267 25.8223 263.524 25.6925 263.781 25.5627V18.036C263.267 17.6467 262.754 17.3872 261.983 17.3872C261.469 17.3872 260.956 17.5169 260.442 17.9062Z" fill="#5E2A29"/>
<path d="M270.588 25.9532V18.8157L269.304 18.0371V17.2585L272.129 16.3501L272.643 16.4799V18.1669C272.9 17.7776 273.285 17.3883 273.927 16.999C274.57 16.6096 275.212 16.4799 275.725 16.4799C276.239 16.4799 276.496 16.4799 276.624 16.6096V18.9455C276.111 18.686 275.597 18.5562 274.955 18.5562C274.184 18.5562 273.542 18.686 273.028 19.0753V25.9532L275.468 26.2127V27.2509H269.176V26.2127L270.588 25.9532Z" fill="#5E2A29"/>
<path d="M285.612 17.1282C286.254 17.6473 286.639 18.5557 286.639 19.9832V26.2122H287.795V26.9908C287.538 27.1206 287.282 27.2504 286.896 27.3801C286.511 27.5099 286.126 27.5099 285.741 27.5099C285.227 27.5099 284.97 27.3801 284.713 27.2504C284.456 27.1206 284.456 26.7313 284.328 26.342C283.557 27.1206 282.658 27.5099 281.374 27.5099C280.732 27.5099 280.09 27.3801 279.576 27.1206C279.063 26.861 278.677 26.4717 278.42 26.0824C278.164 25.6931 278.035 25.174 278.035 24.5252C278.035 23.6168 278.292 22.9679 278.934 22.4488C279.576 21.9297 280.347 21.5404 281.246 21.2809C282.145 21.0213 283.172 20.8916 284.071 20.8916V20.2427C284.071 19.3343 283.814 18.6855 283.429 18.4259C283.044 18.0366 282.402 17.9068 281.631 17.9068C281.246 17.9068 280.732 18.0366 280.218 18.1664C279.705 18.2962 279.191 18.4259 278.806 18.6855L278.42 17.6473C278.806 17.258 279.448 16.9984 280.347 16.7389C281.117 16.4794 281.888 16.4794 282.53 16.4794C283.943 16.3496 284.842 16.6091 285.612 17.1282ZM281.631 22.4488C280.86 22.8381 280.475 23.3572 280.475 24.1358C280.475 25.4336 281.117 26.0824 282.402 26.0824C282.658 26.0824 283.044 26.0824 283.3 25.8229C283.686 25.6931 283.943 25.5633 284.071 25.3038V21.9297C283.3 21.9297 282.402 22.0595 281.631 22.4488Z" fill="#5E2A29"/>
<path d="M295.117 25.8215L295.887 13.8826L294.089 13.7528V12.4551H299.226L302.18 21.7986L302.565 23.3558L302.951 21.7986L305.776 12.4551H310.399V13.7528L308.601 13.8826L309.629 25.8215L311.17 26.2108V27.249H305.776V26.2108L307.317 25.8215L306.675 17.5161V14.0123L306.29 15.4398L302.565 27.249H301.666L298.199 17.2566C297.942 16.3482 297.557 15.31 297.172 14.0123V16.9971L296.786 25.8215L298.584 26.2108V27.249H293.447V26.2108L295.117 25.8215Z" fill="#5E2A29"/>
<path d="M316.691 16.4781V25.9514L318.103 26.2109V27.2491H312.838V26.2109L314.379 25.9514V18.8139L313.095 17.9056V17.2567L316.177 16.3483L316.691 16.4781ZM316.562 11.6765C316.819 11.9361 316.947 12.3254 316.947 12.7147C316.947 13.2338 316.819 13.6231 316.434 13.8827C316.048 14.1422 315.663 14.4017 315.278 14.4017C314.893 14.4017 314.507 14.272 314.251 14.0124C313.994 13.7529 313.865 13.3636 313.865 12.9743C313.865 12.4552 313.994 12.0659 314.379 11.8063C314.764 11.5468 315.149 11.2872 315.535 11.2872C315.92 11.2872 316.305 11.417 316.562 11.6765Z" fill="#5E2A29"/>
<path d="M321.186 24.2647L321.699 25.4326C322.085 25.6922 322.341 25.9517 322.727 26.0815C322.984 26.2112 323.369 26.341 323.882 26.341C324.525 26.341 325.038 26.2112 325.424 25.9517C325.809 25.6922 325.937 25.3029 325.937 24.7838C325.937 24.3945 325.809 24.1349 325.424 23.8754C325.038 23.6158 324.525 23.3563 323.882 22.967L323.369 22.7074C322.341 22.1883 321.699 21.799 321.057 21.1502C320.543 20.6311 320.287 19.9822 320.287 19.2036C320.287 18.5548 320.543 18.0357 320.929 17.5166C321.314 17.1273 321.828 16.738 322.47 16.4784C323.112 16.2189 323.754 16.0891 324.396 16.0891C324.91 16.0891 325.552 16.0891 326.066 16.2189C326.579 16.3487 327.093 16.4784 327.478 16.6082V18.8143H326.194L325.809 17.6464C325.295 17.1273 324.781 16.8677 324.268 16.8677C323.754 16.8677 323.24 16.9975 322.983 17.2571C322.727 17.5166 322.47 17.7761 322.47 18.2952C322.47 18.6845 322.598 18.9441 322.855 19.2036C323.112 19.4632 323.369 19.7227 323.626 19.8525C323.882 19.9822 324.396 20.2418 325.167 20.6311C325.809 20.8906 326.322 21.28 326.708 21.4097C327.093 21.6693 327.478 21.9288 327.735 22.3181C327.992 22.7074 328.12 23.2265 328.12 23.7456C328.12 24.7838 327.735 25.6922 326.836 26.2112C325.937 26.7303 324.91 27.1196 323.626 27.1196C322.983 27.1196 322.47 26.9899 321.828 26.8601C321.186 26.7303 320.672 26.4708 320.158 26.2112V23.8754H321.186V24.2647Z" fill="#5E2A29"/>
<path d="M331.075 24.2647L331.588 25.4326C331.974 25.6922 332.231 25.9517 332.616 26.0815C332.873 26.2112 333.258 26.341 333.772 26.341C334.414 26.341 334.927 26.2112 335.313 25.9517C335.698 25.6922 335.826 25.3029 335.826 24.7838C335.826 24.3945 335.698 24.1349 335.313 23.8754C334.927 23.6158 334.414 23.3563 333.772 22.967L333.258 22.7074C332.231 22.1883 331.588 21.799 330.946 21.1502C330.433 20.6311 330.176 19.9822 330.176 19.2036C330.176 18.5548 330.433 18.0357 330.818 17.5166C331.203 17.1273 331.717 16.738 332.359 16.4784C333.001 16.2189 333.643 16.0891 334.285 16.0891C334.799 16.0891 335.441 16.0891 335.955 16.2189C336.468 16.3487 336.982 16.4784 337.367 16.6082V18.8143H336.212L335.826 17.6464C335.313 17.1273 334.799 16.8677 334.285 16.8677C333.772 16.8677 333.258 16.9975 333.001 17.2571C332.744 17.5166 332.487 17.7761 332.487 18.2952C332.487 18.6845 332.616 18.9441 332.873 19.2036C333.13 19.4632 333.386 19.7227 333.643 19.8525C333.9 19.9822 334.414 20.2418 335.184 20.6311C335.826 20.8906 336.34 21.28 336.725 21.4097C337.111 21.6693 337.496 21.9288 337.753 22.3181C338.01 22.7074 338.138 23.2265 338.138 23.7456C338.138 24.7838 337.753 25.6922 336.854 26.2112C335.955 26.7303 334.927 27.1196 333.643 27.1196C333.001 27.1196 332.487 26.9899 331.845 26.8601C331.203 26.7303 330.689 26.4708 330.176 26.2112V23.8754H331.075V24.2647Z" fill="#5E2A29"/>
<path d="M343.532 16.4781V25.9514L344.945 26.2109V27.2491H339.68V26.2109L341.221 25.9514V18.8139L339.937 17.9056V17.2567L343.019 16.3483L343.532 16.4781ZM343.404 11.6765C343.661 11.9361 343.789 12.3254 343.789 12.7147C343.789 13.2338 343.661 13.6231 343.276 13.8827C342.89 14.1422 342.505 14.4017 342.12 14.4017C341.734 14.4017 341.349 14.272 341.092 14.0124C340.835 13.7529 340.707 13.3636 340.707 12.9743C340.707 12.4552 340.836 12.0659 341.221 11.8063C341.606 11.5468 341.991 11.2872 342.377 11.2872C342.762 11.2872 343.147 11.417 343.404 11.6765Z" fill="#5E2A29"/>
<path d="M355.09 17.6471C355.86 18.6853 356.374 19.983 356.374 21.5402C356.374 22.7082 356.117 23.7463 355.732 24.5249C355.218 25.4333 354.704 26.0822 353.934 26.6013C353.163 27.1204 352.264 27.3799 351.237 27.3799C349.567 27.3799 348.283 26.8608 347.513 25.8227C346.742 24.7845 346.229 23.4868 346.229 21.7998C346.229 20.6318 346.485 19.7234 346.999 18.815C347.513 17.9066 348.155 17.2578 348.925 16.8685C349.696 16.4791 350.595 16.2196 351.622 16.2196C353.035 16.2196 354.191 16.7387 355.09 17.6471ZM348.669 21.5402C348.669 22.8379 348.925 23.8761 349.311 24.7845C349.696 25.6929 350.338 26.212 351.237 26.212C352.136 26.212 352.778 25.8227 353.292 25.044C353.805 24.2654 353.934 23.2272 353.934 21.7998C353.934 20.502 353.677 19.4639 353.292 18.5555C352.906 17.7769 352.264 17.3875 351.365 17.3875C349.439 17.3875 348.669 18.815 348.669 21.5402Z" fill="#5E2A29"/>
<path d="M358.942 25.9532V18.8157L357.658 18.0371V17.2585L360.483 16.3501L360.997 16.4799V17.9073C361.51 17.518 362.153 17.1287 362.795 16.7394C363.565 16.4799 364.207 16.3501 364.849 16.3501C366.005 16.3501 366.776 16.7394 367.161 17.3883C367.546 18.0371 367.803 19.2051 367.803 20.7623V25.9532L369.216 26.2127V27.2509H364.079V26.2127L365.492 25.9532V21.0219C365.492 20.2432 365.492 19.5944 365.363 19.2051C365.235 18.8157 365.106 18.4264 364.721 18.2967C364.464 18.0371 364.079 18.0371 363.437 18.0371C363.051 18.0371 362.666 18.1669 362.281 18.2967C361.896 18.4264 361.51 18.5562 361.125 18.9455V25.9532L362.409 26.2127V27.2509H357.529V26.2127L358.942 25.9532Z" fill="#5E2A29"/>
<path d="M294.6 41.3967V33.4807L293.701 33.3509V32.4425H295.628C295.884 32.4425 296.398 32.4425 296.912 32.4425C297.04 32.4425 297.169 32.4425 297.425 32.4425C297.682 32.4425 297.811 32.4425 298.068 32.4425C299.609 32.4425 300.893 32.8318 301.663 33.6104C302.434 34.3891 302.819 35.557 302.819 37.1143C302.819 38.1524 302.562 39.0608 302.177 39.8395C301.792 40.6181 301.15 41.2669 300.379 41.6562C299.609 42.0456 298.838 42.3051 297.811 42.3051C297.554 42.3051 297.297 42.3051 296.912 42.3051C296.526 42.3051 296.141 42.3051 295.756 42.3051H293.83V41.5265L294.6 41.3967ZM297.554 41.5265C297.682 41.5265 297.939 41.5265 297.939 41.5265C298.453 41.5265 298.967 41.2669 299.352 41.0074C299.737 40.6181 300.122 40.2288 300.251 39.5799C300.508 38.9311 300.636 38.2822 300.636 37.5036C300.636 36.0761 300.379 35.0379 299.865 34.3891C299.352 33.6104 298.581 33.3509 297.554 33.3509C297.297 33.3509 297.04 33.3509 296.912 33.3509C296.783 33.3509 296.526 33.3509 296.398 33.4807V41.3967C296.655 41.5265 297.04 41.5265 297.554 41.5265Z" fill="#5E2A29"/>
<path d="M304.617 41.5272V33.4814L303.59 33.2219V32.4433L306.03 32.1837L306.415 32.3135V35.2982L306.287 36.2066C306.672 35.9471 307.057 35.6875 307.443 35.5578C307.828 35.428 308.213 35.2982 308.727 35.2982C309.24 35.2982 309.754 35.428 310.011 35.6875C310.268 35.9471 310.525 36.3364 310.653 36.7257C310.782 37.2448 310.782 37.8936 310.782 38.6723V41.5272L311.68 41.657V42.4356H307.956V41.657L308.984 41.5272V38.9318C308.984 38.283 308.984 37.7639 308.855 37.5043C308.855 37.115 308.727 36.8555 308.47 36.7257C308.341 36.4662 307.956 36.4662 307.571 36.4662C307.314 36.4662 307.057 36.4662 306.929 36.5959C306.8 36.7257 306.544 36.7257 306.287 36.8555V41.5272L307.057 41.657V42.4356H303.59V41.657L304.617 41.5272Z" fill="#5E2A29"/>
<path d="M317.974 35.6879C318.488 36.0772 318.616 36.726 318.616 37.6344V41.6573H319.387V42.1764C319.259 42.3062 319.002 42.3062 318.745 42.4359C318.488 42.4359 318.231 42.5657 317.974 42.5657C317.332 42.5657 317.075 42.3062 316.947 41.7871C316.433 42.3062 315.791 42.5657 315.021 42.5657C314.378 42.5657 313.736 42.4359 313.351 42.0466C312.966 41.6573 312.709 41.1382 312.709 40.6192C312.709 40.1001 312.966 39.581 313.351 39.1917C313.736 38.8024 314.25 38.5428 314.892 38.413C315.534 38.2833 316.176 38.1535 316.819 38.1535V37.894C316.819 37.3749 316.69 36.9856 316.433 36.726C316.176 36.4665 315.791 36.3367 315.277 36.3367C315.021 36.3367 314.635 36.3367 314.25 36.4665C313.865 36.5963 313.608 36.726 313.351 36.8558L312.966 36.0772C313.223 35.8176 313.736 35.6879 314.25 35.5581C314.764 35.4283 315.277 35.2985 315.791 35.2985C316.819 35.1688 317.461 35.2985 317.974 35.6879ZM315.277 39.1917C314.764 39.4512 314.635 39.8405 314.635 40.2298C314.635 41.0085 315.021 41.3978 315.92 41.3978C316.048 41.3978 316.305 41.3978 316.433 41.268C316.562 41.268 316.819 41.1382 316.947 41.0085V38.8024C316.305 38.9321 315.663 39.0619 315.277 39.1917Z" fill="#5E2A29"/>
<path d="M321.311 41.5277V36.9857L320.412 36.3369V35.688L322.467 35.0392L322.852 35.169V36.3369C322.981 36.0774 323.237 35.688 323.623 35.4285C324.008 35.169 324.393 35.0392 324.778 35.0392C325.164 35.0392 325.292 35.0392 325.421 35.0392V36.7262C325.292 36.5964 325.164 36.5964 324.907 36.5964C324.65 36.5964 324.522 36.4667 324.265 36.4667C323.751 36.4667 323.366 36.5964 323.109 36.7262V41.2682L324.65 41.5277V42.3064H320.412V41.5277H321.311Z" fill="#5E2A29"/>
<path d="M331.586 35.6879C332.099 36.0772 332.228 36.726 332.228 37.6344V41.6573H332.998V42.1764C332.87 42.3062 332.613 42.3062 332.356 42.4359C332.099 42.4359 331.842 42.5657 331.586 42.5657C330.944 42.5657 330.687 42.3062 330.558 41.7871C330.045 42.3062 329.402 42.5657 328.632 42.5657C327.99 42.5657 327.348 42.4359 326.962 42.0466C326.577 41.6573 326.32 41.1382 326.32 40.6192C326.32 40.1001 326.577 39.581 326.962 39.1917C327.348 38.8024 327.861 38.5428 328.503 38.413C329.146 38.2833 329.788 38.1535 330.43 38.1535V37.894C330.43 37.3749 330.301 36.9856 330.045 36.726C329.788 36.4665 329.402 36.3367 328.889 36.3367C328.632 36.3367 328.247 36.3367 327.861 36.4665C327.476 36.5963 327.219 36.726 326.962 36.8558L326.577 36.0772C326.834 35.8176 327.348 35.6879 327.861 35.5581C328.375 35.4283 328.889 35.2985 329.402 35.2985C330.43 35.1688 331.072 35.2985 331.586 35.6879ZM328.889 39.1917C328.375 39.4512 328.247 39.8405 328.247 40.2298C328.247 41.0085 328.632 41.3978 329.531 41.3978C329.659 41.3978 329.916 41.3978 330.045 41.268C330.173 41.268 330.43 41.1382 330.558 41.0085V38.8024C329.916 38.9321 329.402 39.0619 328.889 39.1917Z" fill="#5E2A29"/>
<path d="M334.924 41.527V36.985L334.025 36.3362V35.6873L336.08 35.0385L336.465 35.1682V36.0766C336.722 35.8171 337.108 35.5575 337.493 35.298C337.878 35.0385 338.392 35.0385 338.777 34.9087C339.291 34.9087 339.676 34.9087 340.061 35.1682C340.447 35.298 340.575 35.5575 340.832 35.9469C341.217 35.6873 341.602 35.4278 341.988 35.298C342.373 35.1682 342.887 35.0385 343.272 35.0385C344.042 35.0385 344.556 35.298 344.941 35.8171C345.327 36.3362 345.455 37.1148 345.455 38.153V41.527L346.482 41.6568V42.4354H342.887V41.6568L343.657 41.527V38.4125C343.657 37.8934 343.657 37.5041 343.529 37.2446C343.4 36.985 343.4 36.7255 343.143 36.5957C343.015 36.4659 342.63 36.3362 342.244 36.3362C341.859 36.3362 341.474 36.4659 340.96 36.7255C341.089 36.985 341.089 37.5041 341.089 38.0232V41.527L341.988 41.6568V42.4354H338.392V41.6568L339.291 41.527V38.4125C339.291 37.6339 339.162 37.1148 339.034 36.8553C338.905 36.5957 338.52 36.3362 338.007 36.3362C337.75 36.3362 337.493 36.3362 337.364 36.4659C337.108 36.5957 336.851 36.7255 336.722 36.8553V41.527L337.621 41.6568V42.4354H334.154V41.6568L334.924 41.527Z" fill="#5E2A29"/>
<path d="M353.932 35.9469C354.446 36.5957 354.702 37.3743 354.702 38.5423C354.702 39.3209 354.574 39.9698 354.189 40.4888C353.803 41.1377 353.418 41.527 352.776 41.9163C352.134 42.3056 351.62 42.4354 350.85 42.4354C350.721 42.4354 350.464 42.4354 350.336 42.4354C350.208 42.4354 349.951 42.4354 349.951 42.4354V43.7331V44.6415L351.235 44.7713V45.5499H347.382V44.7713L348.153 44.6415V36.8553L347.254 36.2064V35.5575L349.309 34.9087L349.694 35.0385V35.8171C349.822 35.5575 350.079 35.298 350.593 35.1682C350.978 35.0385 351.363 34.9087 351.877 34.9087C352.776 35.0385 353.547 35.4278 353.932 35.9469ZM350.593 36.2064C350.336 36.3362 350.208 36.4659 350.079 36.5957V41.1377C350.208 41.2675 350.336 41.3972 350.593 41.527C350.85 41.6568 351.107 41.6568 351.363 41.6568C351.749 41.6568 352.006 41.527 352.262 41.2675C352.519 41.0079 352.776 40.7484 352.904 40.2293C353.033 39.84 353.161 39.3209 353.161 38.8018C353.161 37.8934 353.033 37.2446 352.648 36.8553C352.262 36.3362 351.877 36.2064 351.363 36.2064C350.978 36.0766 350.721 36.2064 350.593 36.2064Z" fill="#5E2A29"/>
<path d="M355.857 36.2064V35.5575L357.912 35.0385L358.169 35.1682V39.5804C358.169 40.2293 358.297 40.7484 358.426 41.0079C358.554 41.2675 358.94 41.3972 359.325 41.3972C359.582 41.3972 359.839 41.3972 360.095 41.2675C360.352 41.1377 360.609 41.0079 360.737 40.8782V36.5957L359.967 36.2064V35.4278L362.279 34.9087L362.535 35.0385V41.527H363.306V42.1759C363.177 42.3056 362.921 42.3056 362.664 42.4354C362.279 42.5652 362.022 42.5652 361.893 42.5652C361.636 42.5652 361.508 42.5652 361.251 42.4354C361.123 42.3056 360.994 42.1759 360.994 41.9163V41.527C360.737 41.7866 360.352 42.0461 359.967 42.1759C359.582 42.3056 359.196 42.4354 358.811 42.4354C358.169 42.4354 357.784 42.3056 357.398 42.0461C357.013 41.7866 356.885 41.527 356.756 41.1377C356.628 40.7484 356.628 40.2293 356.628 39.5804V36.4659L355.857 36.2064Z" fill="#5E2A29"/>
<path d="M365.36 41.5277V36.9857L364.461 36.3369V35.688L366.516 35.0392L366.901 35.169V36.3369C367.029 36.0774 367.286 35.688 367.672 35.4285C368.057 35.169 368.442 35.0392 368.827 35.0392C369.213 35.0392 369.341 35.0392 369.469 35.0392V36.7262C369.341 36.5964 369.213 36.5964 368.956 36.5964C368.699 36.5964 368.57 36.4667 368.314 36.4667C367.8 36.4667 367.415 36.5964 367.158 36.7262V41.2682L368.699 41.5277V42.3064H364.461V41.5277H365.36Z" fill="#5E2A29"/>
</svg>
